<svg version="1.2" xmlns="http://www.w3.org/2000/svg" viewBox="0 0 1000 1000" width="1000" height="1000">
	<title>newproject</title>
	<defs>
		<linearGradient id="g1" x1="488.7" y1="152" x2="671.6" y2="-51.1" gradientUnits="userSpaceOnUse">
			<stop offset="0" stop-color="#ffffff"/>
		</linearGradient>
		<linearGradient id="g2" x1="206.7" y1="836.7" x2="535.9" y2="692.2" gradientUnits="userSpaceOnUse">
			<stop offset="0" stop-color="#ffffff"/>
			<stop offset="0" stop-color="#ffffff"/>
		</linearGradient>
		<linearGradient id="g3" x1="507.3" y1="797.1" x2="335.3" y2="456.9" gradientUnits="userSpaceOnUse">
			<stop offset="0" stop-color="#ffffff"/>
		</linearGradient>
		<linearGradient id="g4" x1="587.3" y1="550.9" x2="101.1" y2="191.1" gradientUnits="userSpaceOnUse">
			<stop offset="0" stop-color="#ffffff"/>
		</linearGradient>
	</defs>
	<style>
		.s0 { fill: url(#g1) } 
		.s1 { fill: url(#g2) } 
		.s2 { fill: url(#g3) } 
		.s3 { fill: url(#g4) } 
	</style>
	<g id="Layer 1">
		<g id="&lt;Group&gt;">
			<g id="&lt;Group&gt;">
				<g id="&lt;Group&gt;">
					<path id="&lt;Path&gt;" class="s0" d="m779 120.9c0 77.5-31.6 147.8-82.7 198.5l-0.1 0.1c-14.3 14.1-30.2 26.8-47.2 37.6-6 3.8-12 7.4-18.2 10.6 0-2.8 0.1-5.6 0.1-8.5 0-92.2-39.4-175.1-102.3-232.9 26.4 19.4 59.1 31 94.5 31 58.6 0 109.7-31.6 137.4-78.7 4.2-7.2 7.9-14.7 10.9-22.6q4 16.6 5.8 34c1.2 10.1 1.8 20.4 1.8 30.9z"/>
					<path id="&lt;Path&gt;" class="s1" d="m619 941.6c-38.2 9.9-78.3 15.1-119.6 15.1-39.2 0-77.2-4.7-113.7-13.6 52.5-59.2 88.4-133.5 100.4-215.5 12.2 4.4 23.9 9.6 35.3 15.5 14.3 75.2 48.8 143.4 97.6 198.5z"/>
					<path id="&lt;Path&gt;" class="s2" d="m649 357.1c-6.5 5.8-12.7 12-18.6 18.2-58.1 60.5-98.1 138.4-111.5 225.2-3.2 20.9-4.9 42.4-4.9 64.2 0 26.8 2.6 53 7.4 78.4-11.4-5.9-23.1-11.1-35.3-15.5 3-20 4.5-40.5 4.5-61.4 0-14.5-0.7-28.8-2.1-42.9-10.4-101.5-57.1-192.4-127-259.2 40.7 23.1 87.8 36.4 137.9 36.4 47.5 0 92.2-11.9 131.4-32.8 6.2-3.2 12.2-6.8 18.2-10.6z"/>
					<path id="&lt;Path&gt;" class="s3" d="m630.9 359.2c0 2.9-0.1 5.7-0.1 8.5-39.2 20.9-83.9 32.8-131.4 32.8-50.1 0-97.2-13.3-137.9-36.4 0 0 0 0 0 0-24.2-13.7-46-31-64.9-51 0 0-0.1 0-0.1 0-47.5-50.1-76.6-117.8-76.6-192.2 0-10.5 0.5-20.8 1.7-30.9 1.3-11.9 3.4-23.6 6.1-35 24.1-6.9 49.2-10.9 75.3-11.9 3.8-0.1 7.7-0.2 11.7-0.2 74.4 0 142.9 25.7 196.9 68.8 5.3 5.3 11 10.1 17 14.6 62.9 57.8 102.3 140.7 102.3 232.9z"/>
				</g>
			</g>
		</g>
	</g>
</svg>