<?xml version="1.0" standalone="no"?>
<!DOCTYPE svg PUBLIC "-//W3C//DTD SVG 20010904//EN"
 "http://www.w3.org/TR/2001/REC-SVG-20010904/DTD/svg10.dtd">
<svg version="1.0" xmlns="http://www.w3.org/2000/svg"
 width="1000.000000pt" height="1000.000000pt" viewBox="0 0 1000.000000 1000.000000"
 preserveAspectRatio="xMidYMid meet">
<metadata>
Created by potrace 1.14, written by Peter Selinger 2001-2017
</metadata>
<g transform="translate(0.000000,1000.000000) scale(0.100000,-0.100000)"
fill="#000000" stroke="none">
<path d="M2889 9565 c-3 -2 -36 -6 -74 -10 -39 -3 -77 -7 -85 -10 -8 -2 -38
-7 -66 -10 -28 -3 -94 -15 -145 -26 -120 -25 -117 -25 -186 -44 l-58 -16 -18
-92 c-10 -51 -20 -103 -22 -117 -3 -14 -8 -47 -11 -75 -3 -27 -8 -61 -11 -75
-9 -41 -11 -511 -3 -565 4 -27 11 -75 14 -105 22 -189 92 -460 171 -660 107
-270 244 -502 444 -750 65 -81 264 -281 357 -359 115 -96 277 -212 359 -257
35 -19 69 -41 75 -49 7 -8 16 -12 21 -9 5 3 8 2 7 -3 -2 -5 47 -63 108 -129
300 -320 528 -648 706 -1014 69 -141 118 -249 118 -259 0 -4 9 -25 19 -47 61
-126 174 -515 220 -754 27 -143 29 -153 46 -290 4 -30 8 -66 10 -80 2 -14 7
-83 11 -155 16 -259 7 -544 -21 -775 -5 -36 -10 -76 -11 -90 -1 -14 -3 -26 -4
-27 -4 -4 -5 -14 -15 -78 -5 -33 -9 -62 -10 -65 -1 -3 -5 -23 -9 -45 -71 -368
-190 -712 -367 -1065 -87 -173 -120 -233 -131 -238 -5 -2 -8 -8 -8 -13 0 -26
-275 -424 -357 -516 -15 -18 -39 -47 -53 -64 -14 -18 -31 -38 -38 -46 -11 -11
-11 -14 0 -18 56 -19 462 -89 588 -101 30 -3 71 -7 90 -9 221 -24 766 -24 912
0 13 2 50 6 83 10 96 9 136 15 200 26 33 6 74 13 90 16 17 2 100 20 186 39 85
19 159 34 163 34 4 0 -7 17 -24 38 -25 29 -148 182 -198 247 -29 37 -152 217
-152 222 0 4 -6 14 -14 22 -36 41 -286 499 -286 525 0 3 -13 34 -29 68 -33 73
-95 232 -105 268 -4 14 -11 34 -16 45 -13 31 -62 191 -76 250 -1 6 -13 57 -27
115 -45 187 -67 309 -87 475 -5 50 -13 110 -16 135 -9 78 -12 571 -3 665 5 50
11 119 14 155 3 36 8 72 10 80 2 8 7 42 10 75 4 32 8 62 10 65 1 3 6 28 9 55
4 28 11 68 16 90 5 22 11 51 13 65 11 56 60 242 93 350 138 443 344 850 627
1240 171 235 461 548 587 633 64 42 198 143 263 197 61 50 320 316 362 370 27
36 55 70 61 77 15 15 153 224 188 283 67 113 155 303 201 430 15 41 29 82 32
90 3 8 7 20 9 25 1 6 14 51 28 100 78 275 112 555 102 840 -4 99 -9 191 -11
205 -7 47 -14 95 -20 145 -3 28 -8 58 -11 67 -6 21 -13 54 -20 98 -3 19 -7 36
-9 38 -1 2 -24 -41 -50 -95 -84 -174 -188 -318 -330 -458 -70 -69 -196 -170
-245 -195 -14 -7 -27 -16 -30 -20 -3 -4 -54 -31 -115 -61 -153 -76 -292 -121
-475 -155 -19 -3 -114 -8 -210 -10 -172 -3 -285 7 -390 36 -25 7 -52 13 -61
15 -84 16 -412 161 -439 194 -3 3 -34 26 -70 51 -36 24 -78 56 -95 71 -72 65
-94 84 -160 134 -443 333 -989 553 -1515 610 -30 4 -68 9 -85 12 -36 6 -551
14 -556 8z"/>
</g>
</svg>
